HIERARCHY
ROOT Hips
{
    OFFSET 0.000000 0.000000 0.000000
    CHANNELS 6 Xposition Yposition Zposition Zrotation Xrotation Yrotation
        JOINT Chest
        {
            OFFSET -0.000000 29.391830 -0.000000
            CHANNELS 3 Zrotation Xrotation Yrotation
            JOINT Neck
            {
                OFFSET -0.000000 21.536943 0.000000
                CHANNELS 3 Zrotation Xrotation Yrotation
                JOINT Head
                {
                    OFFSET -0.000000 10.450000 0.000000
                    CHANNELS 3 Zrotation Xrotation Yrotation
                    End Site
                    {
                        OFFSET -0.000000 16.150003 0.000000
                    }
                }
            }
            JOINT LeftCollar
            {
                OFFSET -0.000000 21.536943 0.000000
                CHANNELS 3 Zrotation Xrotation Yrotation
                JOINT LeftShoulder
                {
                    OFFSET 19.500000 -0.000000 0.000000
                    CHANNELS 3 Zrotation Xrotation Yrotation
                    JOINT LeftElbow
                    {
                        OFFSET 20.632557 0.000000 0.000000
                        CHANNELS 3 Zrotation Xrotation Yrotation
                        JOINT LeftWrist
                        {
                            OFFSET 24.683100 0.000000 0.000000
                            CHANNELS 3 Zrotation Xrotation Yrotation
                            End Site
                            {
                                OFFSET 0.000000 -14.250000 0.000000
                            }
                        }
                    }
                }
            }
            JOINT RightCollar
            {
                OFFSET -0.000000 21.536943 0.000000
                CHANNELS 3 Zrotation Xrotation Yrotation
                JOINT RightShoulder
                {
                    OFFSET -19.500000 0.000000 0.000000
                    CHANNELS 3 Zrotation Xrotation Yrotation
                    JOINT RightElbow
                    {
                        OFFSET -20.632557 0.000000 0.000000
                        CHANNELS 3 Zrotation Xrotation Yrotation
                        JOINT RightWrist
                        {
                            OFFSET -24.683100 0.000000 0.000000
                            CHANNELS 3 Zrotation Xrotation Yrotation
                            End Site
                            {
                                OFFSET -0.000000 -14.250000 0.000000
                            }
                        }
                    }
                }
            }
        }
    JOINT LeftHip
    {
        OFFSET 11.400001 0.000000 0.000000
        CHANNELS 3 Zrotation Xrotation Yrotation
        JOINT LeftKnee
        {
            OFFSET -0.000000 -38.134491 0.000000
            CHANNELS 3 Zrotation Xrotation Yrotation
            JOINT LeftAnkle
            {
                OFFSET -0.000000 -39.452507 0.000000
                CHANNELS 3 Zrotation Xrotation Yrotation
                End Site
                {
                    OFFSET -0.000000 -4.750000 16.150003
                }
            }
        }
    }
    JOINT RightHip
    {
        OFFSET -11.400001 0.000000 0.000000
        CHANNELS 3 Zrotation Xrotation Yrotation
        JOINT RightKnee
        {
            OFFSET -0.000000 -38.134491 0.000000
            CHANNELS 3 Zrotation Xrotation Yrotation
            JOINT RightAnkle
            {
                OFFSET -0.000000 -39.452507 0.000000
                CHANNELS 3 Zrotation Xrotation Yrotation
                End Site
                {
                    OFFSET -0.000000 -4.750000 16.150003
                }
            }
        }
    }
}
MOTION
Frames:    13
Frame Time:    0.010000
-7.868598    85.004234    -16.639847    4.495496    2.471484    -24.976896    2.728043    11.991900    -3.589574    -15.926739    -2.499744    -7.750773    8.492233    -16.477072    -6.579330    -16.099457    -1.829123    12.880023    -22.973675    45.893097    -42.011982    11.552063    -12.401541    -94.218559    127.095047    3.527862    7.980247    24.568222    -0.591252    -2.714849    -42.338680    59.169647    86.005264    -35.359310    -19.972168    57.767147    -101.901527    -24.774876    -48.598511    2.753297    -23.233038    2.781146    1.347000    35.483864    -8.641183    -3.230687    -8.794688    0.534518    -4.874918    -14.443884    1.956269    -2.867203    37.664307    -10.768277    12.781255    -22.019758    7.500910    
-7.805170    84.705162    -16.513510    4.162792    2.364618    -25.024450    2.992468    12.451341    -3.892866    -16.214426    -2.966742    -7.018603    9.792910    -18.674549    -4.940020    -16.673990    -2.028064    14.130190    -22.038988    45.512741    -42.853157    11.592106    -12.409470    -93.840729    127.789360    3.665186    7.879993    24.997478    -0.411259    -0.998219    -42.166218    59.090721    85.145584    -34.383770    -19.289600    58.558960    -102.038513    -24.885910    -48.151958    2.850061    -22.682470    2.298833    0.920337    35.158691    -7.864075    -2.878088    -9.168107    0.953672    -4.669007    -14.476905    1.694531    -3.150677    38.217709    -10.213482    12.863347    -22.332155    7.446869    
-7.727112    84.647896    -16.434149    4.051718    2.635450    -25.002710    3.301599    12.425875    -4.031074    -16.096603    -2.962890    -6.951918    9.747634    -18.774105    -4.914382    -16.849838    -2.092831    14.206045    -20.993065    45.919945    -43.650772    11.703520    -12.566264    -93.578827    127.740784    3.824641    7.893811    25.230108    -0.270410    -0.568964    -40.153221    58.836018    82.680550    -33.225250    -18.716261    59.418331    -102.363144    -24.959969    -48.018681    2.812274    -22.882689    3.292676    1.883421    35.165829    -9.499491    -2.126225    -9.240513    1.225499    -4.549302    -14.778590    1.947264    -2.959295    38.426765    -10.617817    13.105319    -22.093550    7.649442    
-7.675786    84.584824    -16.355335    3.924224    2.703461    -24.987965    3.511947    12.550653    -4.185168    -15.974190    -3.051870    -6.929597    9.709819    -18.833651    -4.886876    -17.046139    -2.121988    14.151395    -20.391039    45.988281    -44.134277    11.750408    -12.464998    -93.355690    128.081863    4.057390    7.978195    25.442511    -0.173190    -0.345189    -39.279854    58.548397    81.427124    -32.410469    -18.477089    59.843021    -102.098724    -25.249384    -47.430962    2.786379    -22.774900    3.459949    2.126263    35.019955    -9.862326    -1.815753    -9.343497    1.462057    -4.477345    -14.879875    1.962178    -2.938278    38.619400    -10.627440    13.227952    -22.023449    7.695520    
-7.617060    84.551079    -16.262604    3.803560    2.777487    -24.956495    3.725733    12.680580    -4.352374    -15.845034    -3.173672    -6.919924    9.673767    -18.867804    -4.866029    -17.251375    -2.144733    14.089097    -19.801842    46.044849    -44.649162    11.700826    -12.329899    -93.098953    128.429291    4.234529    7.980520    25.635376    -0.102648    -0.121133    -38.463467    58.292439    80.212440    -31.622948    -18.184650    60.236980    -101.936707    -25.478498    -46.931484    2.726696    -22.654480    3.630539    2.411538    34.831707    -10.280133    -1.531345    -9.410360    1.716184    -4.430320    -14.973112    1.966231    -2.899776    38.784241    -10.638238    13.363948    -21.888329    7.731934    
-7.551205    84.558655    -16.156679    3.702169    2.853743    -24.906235    3.927162    12.806314    -4.522446    -15.717120    -3.322795    -6.926418    9.643886    -18.862240    -4.862414    -17.440874    -2.163310    14.026633    -19.253853    46.122303    -45.186417    11.634418    -12.150613    -92.786423    128.697586    4.331998    7.905436    25.786417    -0.037095    0.077972    -37.762367    58.076283    79.112480    -30.880804    -17.885027    60.566936    -101.821762    -25.675648    -46.473503    2.625393    -22.518955    3.785333    2.719778    34.589321    -10.717540    -1.301542    -9.416499    1.969365    -4.423719    -15.048462    1.948351    -2.844806    38.897121    -10.644670    13.510009    -21.667070    7.756454    
-7.478703    84.616730    -16.038692    3.629974    2.928618    -24.837894    4.101236    12.918124    -4.683302    -15.596647    -3.490136    -6.956011    9.627175    -18.812819    -4.881052    -17.592831    -2.165852    13.969499    -18.765871    46.235241    -45.744450    11.527122    -11.919133    -92.423698    128.981293    4.422797    7.822943    25.875669    0.015479    0.223441    -37.272926    57.919823    78.250710    -30.252781    -17.631424    60.756256    -101.714539    -25.865805    -46.054550    2.480085    -22.362793    3.907951    3.026222    34.278828    -11.131721    -1.145979    -9.339171    2.199188    -4.469310    -15.096348    1.898802    -2.776571    38.935635    -10.642097    13.664294    -21.341047    7.770549    
-7.400388    84.730568    -15.910191    3.593211    2.999849    -24.755451    4.237068    13.005937    -4.822162    -15.492373    -3.668100    -7.009403    9.633683    -18.715820    -4.921958    -17.685196    -2.168394    13.928928    -18.361746    46.408100    -46.315533    11.395308    -11.672195    -92.005310    129.211136    4.461291    7.714871    25.887657    0.049798    0.298435    -37.052082    57.852840    77.707428    -29.780418    -17.443571    60.780655    -101.637932    -26.035666    -45.705708    2.294956    -22.178493    3.987655    3.304573    33.885201    -11.478716    -1.074238    -9.159843    2.382347    -4.572834    -15.109100    1.812264    -2.699146    38.881573    -10.628465    13.825661    -20.898745    7.778484    
-7.317544    84.900810    -15.773003    3.593508    3.067105    -24.666218    4.328810    13.060323    -4.926391    -15.409654    -3.849154    -7.087638    9.667976    -18.564867    -4.986872    -17.698009    -2.200391    13.911099    -18.065084    46.667786    -46.873913    11.253363    -11.423269    -91.540352    129.371429    4.451349    7.601928    25.813564    0.088983    0.289270    -37.088203    57.882347    77.484329    -29.471191    -17.313551    60.663456    -101.627090    -26.161049    -45.452999    2.080975    -21.957922    4.022046    3.531341    33.394669    -11.720690    -1.087904    -8.867359    2.498711    -4.732220    -15.082047    1.690281    -2.616770    38.723293    -10.605696    13.989876    -20.338737    7.786029    
-7.231671    85.123680    -15.628990    3.628197    3.132507    -24.581152    4.376451    13.073187    -4.984125    -15.354601    -4.028350    -7.188731    9.734221    -18.353043    -5.074331    -17.644468    -2.187134    13.921030    -17.868853    46.928761    -47.383968    11.030912    -11.027434    -91.107323    129.623718    4.501108    7.555355    25.649679    0.068512    0.192481    -37.486282    58.036434    77.719963    -29.395439    -17.306259    60.306728    -101.650932    -26.267551    -45.299068    1.854233    -21.694124    4.019603    3.690922    32.796875    -11.834002    -1.186725    -8.459792    2.535845    -4.937790    -15.014867    1.543506    -2.532496    38.456764    -10.579858    14.146053    -19.669706    7.797963    
-7.143983    85.391785    -15.479511    3.691041    3.200697    -24.515125    4.384978    13.037696    -4.983791    -15.331742    -4.202484    -7.308802    9.832463    -18.073387    -5.181275    -17.519461    -2.156125    13.961864    -17.772989    47.204597    -47.858967    10.758300    -10.619873    -90.685455    129.778458    4.463948    7.484070    25.395479    0.033797    0.010694    -38.144810    58.312950    78.306465    -29.508116    -17.324913    59.848087    -101.766541    -26.303026    -45.280468    1.633294    -21.382591    4.001487    3.779690    32.086468    -11.815374    -1.372988    -7.945381    2.491814    -5.173380    -14.912102    1.392172    -2.448277    38.085743    -10.558281    14.278820    -18.907724    7.815096    
-7.054953    85.695007    -15.325232    3.773899    3.279034    -24.485130    4.362151    12.947605    -4.915739    -15.341003    -4.367249    -7.442995    9.955926    -17.723387    -5.304826    -17.321861    -2.142216    14.031770    -17.775858    47.512714    -48.270195    10.453478    -10.214513    -90.294182    129.832703    4.354562    7.419262    25.054281    -0.005050    -0.251508    -39.051483    58.677898    79.236580    -29.796774    -17.401361    59.279804    -101.982590    -26.260309    -45.381546    1.435259    -21.023584    3.997996    3.806905    31.264875    -11.682179    -1.647791    -7.342251    2.375043    -5.419108    -14.783612    1.262252    -2.366065    37.621487    -10.546585    14.376417    -18.074677    7.835173    
-6.964502    86.020790    -15.166632    3.868418    3.375978    -24.506512    4.317260    12.797729    -4.775214    -15.380308    -4.520819    -7.583687    10.095357    -17.301138    -5.439585    -17.082098    -2.082123    14.127707    -17.839094    47.769943    -48.592922    10.061829    -9.686340    -90.006203    129.929962    4.267877    7.426748    24.634504    -0.067607    -0.582616    -40.214924    59.116573    80.520302    -30.265188    -17.546730    58.598907    -102.248161    -26.170494    -45.573776    1.272301    -20.624403    4.039697    3.790670    30.344975    -11.467054    -2.002153    -6.677926    2.202865    -5.654592    -14.643807    1.178847    -2.289356    37.083450    -10.546218    14.436926    -17.199953    7.854615    
